<svg t="1697380154847" class="icon" viewBox="0 0 1024 1024" version="1.1" xmlns="http://www.w3.org/2000/svg" p-id="28032" width="200" height="200"><path d="M679 337.8c-155.2 0-281.3 127-281.3 283.1C397.7 777 523.9 904 679 904c155.2 0 281.3-127 281.3-283.1 0.1-156-126.2-283.1-281.3-283.1z m0 513.1c-126 0-228.5-103.2-228.5-230s102.5-230 228.5-230 228.5 103.2 228.5 230c0.1 126.8-102.4 230-228.5 230zM99 749.8c-9.3 0-18.1 3.7-24.7 10.3-6.5 6.6-10.2 15.5-10.2 24.7 0 19.4 15.6 35.1 34.8 35.1h268.9c-13.9-22.1-25.5-45.5-34.4-70L99 749.8z m0-559.9h743c19.3 0 34.8-15.7 34.8-35 0-9.3-3.6-18.2-10.1-24.8-6.5-6.6-15.4-10.3-24.7-10.3H99c-18.8 0.8-33.7 16.2-33.7 35 0.1 18.9 14.9 34.4 33.7 35.1z m0 419.9h211.7c0.7-23.5 3.5-47 8.5-70H99c-19.3 0-35 15.7-35 35 0 19.4 15.7 35 35 35z m351.6-279.9H99c-9.3 0-18.2 3.7-24.7 10.3-6.5 6.6-10.2 15.5-10.1 24.8 0 19.4 15.6 35.1 34.8 35.1h284.1c19.5-26.4 42.1-49.9 67.5-70.2z m0 0" p-id="28033" fill="#ffffff"></path><path d="M687.3 616.9v-73.5c0-17.4-14.1-31.5-31.5-31.5s-31.5 14.1-31.5 31.5v105c0 17.5 14.1 31.5 31.5 31.5h105c17.4 0 31.5-14.1 31.5-31.5s-14.1-31.5-31.5-31.5h-73.5z m0 0" p-id="28034" fill="#ffffff"></path></svg>