<svg t="1697379917537" class="icon" viewBox="0 0 1024 1024" version="1.1" xmlns="http://www.w3.org/2000/svg" p-id="19518" width="200" height="200"><path d="M512.085333 320.128a106.24 106.24 0 1 1-0.298666 212.437333 106.24 106.24 0 0 1 0.298666-212.48z m0-64a170.837333 170.837333 0 1 0 0.554667 341.717333 170.837333 170.837333 0 0 0-0.554667-341.717333z" fill="#ffffff" p-id="19519"></path><path d="M805.162667 124.330667a407.594667 407.594667 0 0 0-586.112 0 431.274667 431.274667 0 0 0 0 599.552L512.085333 1024l293.12-300.117333a431.274667 431.274667 0 0 0 0-599.552z m-44.16 557.312l-248.917334 256-248.917333-256a365.397333 365.397333 0 0 1 0-508.714667 346.837333 346.837333 0 0 1 497.834667 0 365.397333 365.397333 0 0 1 0 508.714667z" fill="#ffffff" p-id="19520"></path></svg>