<svg t="1697379520812" class="icon" viewBox="0 0 1024 1024" version="1.1" xmlns="http://www.w3.org/2000/svg" p-id="12625" width="200" height="200"><path d="M88.86 317.47L129 337.65l95.11 47.78 113.42 57 93.65 47c16.64 8.36 33.27 18 50.77 24.5 24.89 9.23 51.63 4.54 74.73-7L577 496.78l84.26-42.1 111.92-55.93 103.18-51.56 56.86-28.41 2.62-1.31c19.68-9.83 19.74-42.33 0-52.14L898 246.49 806.53 201l-110.21-54.76L601 98.88c-15.46-7.69-30.85-15.54-46.39-23.06l-0.67-0.34c-0.62-0.3-1.25-0.59-1.87-0.87-22.35-10.23-48-13.3-71.46-4.25-4.85 1.88-9.58 4-14.23 6.3L446 86.85l-86.8 43.38-115.36 57.66-103 51.49C123.75 247.9 106.37 256 89.58 265l-0.72 0.36c-19.73 9.83-19.67 42.23 0 52.11z m159.69-64.57l110.13-55 94.79-47.37c15-7.52 30.07-15.12 45.16-22.57l0.27-0.12a67 67 0 0 1 8.35-2.31 69 69 0 0 1 8.26 0 69.15 69.15 0 0 1 8.42 2.33l37.46 18.63 91.46 45.46 110.21 54.79 90 44.76-77.52 38.74-110.42 55.16-95.51 47.73c-15.16 7.57-30.29 15.23-45.49 22.73l-0.29 0.13a66.87 66.87 0 0 1-8.31 2.3 67.28 67.28 0 0 1-8.28 0 67.39 67.39 0 0 1-8.61-2.4c-12.29-5.73-24.27-12.23-36.37-18.31L371.47 392l-109.89-55.2-90.21-45.31z" p-id="12626" fill="#ffffff"></path><path d="M87.8 470.26l40.2 20.18 95.11 47.78 113.42 57 93.65 47c16.64 8.36 33.27 18 50.77 24.51 24.89 9.22 51.63 4.53 74.72-7L576 649.58l84.26-42.11 111.92-55.92L875.33 500l56.86-28.42 2.62-1.31C949 463.19 954.08 442 945.64 429c-9.33-14.48-26.16-18.39-41.3-10.83L866 437.28 774.51 483l-110.45 55.19-95.52 47.73c-15.16 7.58-30.28 15.23-45.48 22.73l-0.29 0.14a68.61 68.61 0 0 1-8.31 2.29 67.28 67.28 0 0 1-8.28 0 67.54 67.54 0 0 1-8.62-2.4c-12.28-5.73-24.26-12.23-36.36-18.3l-90.79-45.61-109.89-55.2-95.19-47.81c-15.46-7.76-30.85-15.69-46.38-23.3l-0.67-0.34C104.18 411 84.91 413.92 77 429c-7.27 13.66-4.27 33.69 10.8 41.26z" p-id="12627" fill="#ffffff"></path><path d="M905.4 570.4l-38.34 19.16-91.49 45.72-110.45 55.19-95.51 47.73c-15.16 7.57-30.29 15.22-45.49 22.72l-0.29 0.14a66.87 66.87 0 0 1-8.31 2.3 67.28 67.28 0 0 1-8.28 0 65.84 65.84 0 0 1-8.61-2.41c-12.29-5.72-24.27-12.22-36.37-18.3l-90.79-45.6-109.89-55.2L166.39 594c-15.46-7.77-30.85-15.69-46.38-23.3l-0.67-0.34c-14.1-7.04-33.34-4.17-41.34 10.87-7.24 13.71-4.24 33.74 10.83 41.31L129 642.72l95.11 47.78 113.42 57 93.65 47c16.64 8.36 33.27 18 50.77 24.5 24.89 9.23 51.63 4.53 74.73-7L577 801.85l84.26-42.1 111.92-55.93 103.18-51.56 56.86-28.41 2.62-1.31c14.16-7.08 19.27-28.22 10.84-41.31-9.31-14.48-26.14-18.4-41.28-10.83z" p-id="12628" fill="#ffffff"></path><path d="M905.4 705.5l-38.34 19.16-91.49 45.72-110.45 55.19-95.51 47.73c-15.16 7.58-30.29 15.23-45.49 22.73l-0.29 0.14a68.61 68.61 0 0 1-8.31 2.29 67.28 67.28 0 0 1-8.28 0 67.39 67.39 0 0 1-8.61-2.4c-12.29-5.73-24.27-12.23-36.37-18.3l-90.79-45.61L261.58 777l-95.19-47.81c-15.46-7.76-30.85-15.69-46.38-23.3l-0.67-0.34C105.24 698.42 86 701.3 78 716.34c-7.24 13.7-4.24 33.73 10.83 41.3L129 777.82l95.11 47.78 113.42 57 93.65 47c16.64 8.36 33.27 18 50.77 24.51 24.89 9.22 51.63 4.53 74.73-7L577 937l84.26-42.11 111.92-55.92 103.18-51.56L933.25 759l2.62-1.31c14.16-7.07 19.27-28.22 10.84-41.3-9.34-14.54-26.17-18.45-41.31-10.89z" p-id="12629" fill="#ffffff"></path></svg>