<svg t="1697277663128" class="icon" viewBox="0 0 1024 1024" version="1.1" xmlns="http://www.w3.org/2000/svg" p-id="4928" width="200" height="200"><path d="M1014.01 962.42L839.54 776.55q52.45-63.86 80.96-140.83 28.51-76.97 28.51-161.35-5.7-201.84-139.69-335.83Q675.33 4.56 474.64 0 272.8 4.56 138.82 138.54T0.28 474.37q4.56 200.69 138.54 334.68 133.99 133.99 335.82 139.69 102.63 0 196.13-42.19 13.69-6.84 18.82-20.52 5.13-13.69-1.14-27.94-6.27-14.25-19.96-19.38-13.68-5.13-28.51 0.57-78.68 36.49-165.34 36.49-171.05-4.56-283.94-118.02Q77.81 644.29 73.25 474.38q4.56-171.05 117.45-283.94Q303.59 77.55 474.64 72.99q169.91 4.56 283.37 117.45 113.46 112.89 118.02 283.94 0 78.68-29.08 149.95-29.08 71.27-82.67 128.29-10.26 11.4-10.26 25.65 0 14.25 11.4 25.65l3.42 2.28 2.28 4.56 189.29 201.84q11.41 11.4 25.66 11.4t25.65-10.26q11.4-10.26 11.98-25.08 0.57-14.82-9.69-26.23z" fill="#666666" p-id="4929"></path></svg>