<svg t="1697379725748" class="icon" viewBox="0 0 1024 1024" version="1.1" xmlns="http://www.w3.org/2000/svg" p-id="18192" width="200" height="200"><path d="M512 1024A511.989298 511.989298 0 1 0 0.010702 511.989298a512.010702 512.010702 0 0 0 511.989298 512.010702z m0-42.65864A469.330658 469.330658 0 1 1 981.330658 511.989298 469.330658 469.330658 0 0 1 512 981.319956z" fill="#ffffff" p-id="18193"></path><path d="M762.450952 255.994649a47.96689 47.96689 0 0 0-41.438599 72.110867l-136.023912 191.35386a47.688635 47.688635 0 0 0-35.402605 6.827951l-95.099015-61.130495v-1.198637a47.96689 47.96689 0 1 0-91.096424 20.911937l-94.456888 143.708033a47.96689 47.96689 0 1 0 32.8555 21.596873l92.209444-140.069313a48.159528 48.159528 0 0 0 43.343576-9.396459l91.139232 58.540582a47.96689 47.96689 0 1 0 88.827575-17.123387l136.109529-191.35386a47.859869 47.859869 0 1 0 9.053991-94.799356z" fill="#ffffff" p-id="18194"></path></svg>