<svg t="1696682241481" class="icon" viewBox="0 0 1024 1024" version="1.1" xmlns="http://www.w3.org/2000/svg" p-id="2307" width="300" height="300"><path d="M690.005333 482.261333a21.333333 21.333333 0 0 0 0 30.165334l15.061334 15.104a21.333333 21.333333 0 0 0 30.165333 0L810.666667 452.096a170.666667 170.666667 0 1 0-241.365334-241.365333l-75.434666 75.434666a21.333333 21.333333 0 0 0 0 30.165334l15.104 15.104a21.333333 21.333333 0 0 0 30.165333 0L614.570667 256a106.666667 106.666667 0 1 1 150.826666 150.869333l-75.392 75.392zM448 192A21.333333 21.333333 0 0 0 426.666667 170.666667h-21.333334a21.333333 21.333333 0 0 0-21.333333 21.333333v113.365333a21.333333 21.333333 0 0 0 21.333333 21.333334h21.333334a21.333333 21.333333 0 0 0 21.333333-21.333334V192zM243.498667 228.437333a21.333333 21.333333 0 0 1 30.165333 0l80.170667 80.128a21.333333 21.333333 0 0 1 0 30.165334l-15.104 15.104a21.333333 21.333333 0 0 1-30.165334 0L228.437333 273.664a21.333333 21.333333 0 0 1 0-30.165333l15.061334-15.061334zM170.666667 405.333333a21.333333 21.333333 0 0 1 21.333333-21.333333h113.365333a21.333333 21.333333 0 0 1 21.333334 21.333333v21.333334a21.333333 21.333333 0 0 1-21.333334 21.333333H192A21.333333 21.333333 0 0 1 170.666667 426.666667v-21.333334zM853.333333 618.666667a21.333333 21.333333 0 0 1-21.333333 21.333333h-113.365333a21.333333 21.333333 0 0 1-21.333334-21.333333V597.333333a21.333333 21.333333 0 0 1 21.333334-21.333333H832a21.333333 21.333333 0 0 1 21.333333 21.333333v21.333334zM780.501333 795.562667a21.333333 21.333333 0 0 1-30.165333 0l-80.170667-80.128a21.333333 21.333333 0 0 1 0-30.165334l15.104-15.104a21.333333 21.333333 0 0 1 30.165334 0l80.128 80.170667a21.333333 21.333333 0 0 1 0 30.165333l-15.061334 15.061334zM576 832a21.333333 21.333333 0 0 0 21.333333 21.333333h21.333334a21.333333 21.333333 0 0 0 21.333333-21.333333v-113.365333a21.333333 21.333333 0 0 0-21.333333-21.333334H597.333333a21.333333 21.333333 0 0 0-21.333333 21.333334V832z" fill="#ffffff" p-id="2308"></path><path d="M661.973333 386.56l-15.104-15.061333a21.333333 21.333333 0 0 0-30.165333 0l-245.205333 245.205333a21.333333 21.333333 0 0 0 0 30.165333l15.104 15.104a21.333333 21.333333 0 0 0 30.165333 0l245.205333-245.205333a21.333333 21.333333 0 0 0 0-30.165333z" fill="#ffffff" p-id="2309"></path><path d="M316.330667 497.365333a21.333333 21.333333 0 0 0-30.165334 0L210.773333 572.8a170.666667 170.666667 0 0 0 241.365334 241.322667l75.434666-75.392a21.333333 21.333333 0 0 0 0-30.165334l-15.104-15.104a21.333333 21.333333 0 0 0-30.165333 0l-75.392 75.434667A106.666667 106.666667 0 0 1 256 618.026667l75.434667-75.434667a21.333333 21.333333 0 0 0 0-30.165333l-15.104-15.061334z" fill="#ffffff" p-id="2310"></path></svg>