<svg t="1697378877822" class="icon" viewBox="0 0 1024 1024" version="1.1" xmlns="http://www.w3.org/2000/svg" p-id="11249" width="200" height="200"><path d="M580.611482 985.6c-17.408-13.312-24.064-36.864-16.896-55.808 0-1.536 0.512-3.584 1.024-6.656 1.024-4.096 2.048-9.728 2.048-13.824 0-29.184-23.04-52.224-52.224-52.224h-3.584c-16.896 0-32.768-15.36-37.376-35.328-7.168-11.264-7.68-55.296-7.68-55.808 0-18.944 4.096-37.376 6.144-47.616 0.512-2.56 1.024-5.632 1.024-6.144v-1.024c4.608-20.992 20.992-36.352 37.376-36.352h5.632c13.824 0 26.112-5.632 35.84-15.872 9.728-9.728 14.848-23.04 14.336-36.352 0-9.728-3.072-19.968-3.072-19.968-7.168-19.456 0-44.032 16.384-56.32h0.512l68.096-36.352c5.12-4.096 9.728-4.096 17.408-4.096 13.312 0 25.6 5.632 35.84 15.872 1.536 1.024 3.584 2.56 5.632 4.096 10.24 7.68 27.136 19.968 37.888 19.968 11.264 0 30.208-14.336 39.424-23.552 10.24-15.36 30.72-16.384 36.352-16.384h18.944l66.048 36.864h0.512c16.896 13.312 23.552 36.352 16.384 55.808 0 1.536-0.512 3.584-1.024 6.656-1.024 4.096-2.048 9.728-2.048 13.824 0 29.184 23.04 52.224 52.224 52.224h3.584c16.896 0 33.28 15.872 37.376 36.864v1.024c0 3.072 3.072 31.232 9.728 48.128l0.512 1.024v1.024c0 25.6-7.168 53.76-7.168 55.296-4.608 20.48-20.992 36.352-37.376 36.352h-3.072c-29.184 0-52.224 23.04-52.224 52.224 0 9.728 3.072 19.456 3.072 19.968 7.168 19.456 0 44.032-16.384 56.32h-0.512l-65.024 36.352h-0.512c-8.192 3.584-12.8 3.584-19.968 3.584-13.312 0-25.6-5.632-36.352-15.872l-0.512-0.512v-0.512c-6.656-9.728-30.208-26.112-42.496-26.112-15.872 0-35.328 19.456-42.496 26.624-9.728 14.848-28.672 16.384-36.352 16.384-7.168 0-9.728 0-15.872 3.072l-2.56 1.024-66.56-37.888z m165.376-65.536c22.016 0 41.472 6.656 64 22.016l0.512 0.512 15.872 15.872 38.912-21.504c-3.072-8.192-5.632-20.48-5.632-30.208 0-56.832 38.4-102.4 93.696-112.128 0-2.048 0.512-4.608 0.512-7.168 1.024-8.192 1.536-16.384-1.024-23.04l-0.512-1.024v-1.024c0-8.704-1.024-16.896-2.048-23.552-0.512-3.072-0.512-5.632-1.024-8.192-54.784-9.728-94.208-56.32-94.208-112.64 0-10.752 3.072-22.528 6.144-30.208l-39.424-21.504c-1.024 1.024-2.56 2.048-4.096 3.072-3.584 2.56-7.168 5.12-11.264 9.216l-0.512 0.512-0.512 0.512c-24.064 15.36-41.984 22.016-59.904 22.016-18.944 0-37.888-7.168-59.904-22.016-7.168-3.584-13.312-9.216-16.384-12.8l-38.912 20.992c3.584 8.192 5.632 20.48 5.632 30.208 0 57.344-38.4 102.912-93.696 112.64-0.512 4.608-1.024 9.728-1.536 14.336-1.024 6.144-1.536 12.288-1.536 17.408 0 8.704 1.024 16.896 2.048 23.552 0.512 3.072 1.024 5.632 1.024 8.192 53.76 9.216 93.696 56.832 93.696 112.128 0 10.752-3.072 22.528-6.144 30.208l35.328 20.48c2.56-3.072 5.632-5.632 9.216-8.704 2.56-2.048 4.608-4.096 7.168-6.144l0.512-0.512 0.512-0.512c22.016-13.824 44.032-20.992 63.488-20.992z m-621.056 92.16C55.299482 1011.712-0.508518 954.368 0.003482 884.736c0-181.248 110.08-340.992 280.576-407.552l8.704-3.584-9.728-5.632h-0.512C215.043482 414.72 179.715482 342.016 179.715482 262.144 179.715482 120.832 295.939482 1.536 433.155482 1.536c145.408 0 264.192 116.736 264.192 260.608 0 79.36-35.328 152.576-98.816 205.824l-14.848 10.752c-34.816 31.744-102.4 41.472-139.264 44.544H404.483482c-184.832 17.92-330.24 176.64-329.728 361.984v1.536c0.512 27.136 21.504 49.152 48.128 50.688l4.096-0.512h327.168c13.312 0 33.28 10.24 33.28 37.888 0 24.064-19.968 37.888-33.28 37.888H124.931482zM439.811482 76.8c-102.4 0-185.856 83.456-185.856 185.856 0 102.4 83.456 185.856 185.856 185.856 102.4 0 185.856-83.456 185.856-185.856 0-102.4-83.456-185.856-185.856-185.856z m308.224 793.088c-7.168 0-14.336-0.512-21.504-2.048-40.96-7.68-75.264-41.472-82.944-82.944-6.656-31.744 1.536-64.512 21.504-89.088 19.456-24.064 48.128-37.376 78.336-37.376 7.168 0 14.336 0.512 21.504 2.048 42.496 7.68 76.288 42.496 82.944 86.528 6.144 30.208-1.024 61.44-20.48 85.504-19.968 23.552-48.64 37.376-79.36 37.376z m-2.048-148.992c-22.528 0-41.472 18.944-41.472 41.472 0 22.528 18.944 41.472 41.472 41.472 10.752 0 21.504-4.608 29.696-12.8 7.68-7.68 11.776-17.92 11.776-28.672 0-22.528-18.944-41.472-41.472-41.472z" p-id="11250" fill="#ffffff"></path></svg>